<svg xmlns="http://www.w3.org/2000/svg" xmlns:xlink="http://www.w3.org/1999/xlink" xmlns:inkscape="http://www.inkscape.org/namespaces/inkscape" version="1.1" width="538.671" height="153.6" viewBox="0 0 538.671 153.6">
<defs>
<path id="font_0_1" d="M.31199647 .34832765H.42399598C.4019928 .2552948 .3909912 .1942749 .3909912 .1352539 .3909912 .067230228 .40899659-.0087890629 .45700074-.0087890629 .48999024-.0087890629 .526001 .02420044 .526001 .05621338 .526001 .068222049 .522995 .07423401 .5139923 .0892334 .46798707 .17025757 .46798707 .24728394 .46798707 .27430726 .46798707 .29830934 .46798707 .3083191 .47399903 .34832765H.59799197C.61698916 .34832765 .6329956 .34832765 .647995 .36332704 .6549988 .3703308 .66799929 .38232423 .66799929 .40533448 .66799929 .44433595 .6329956 .44433595 .61499026 .44433595H.22200012C.20098877 .44433595 .1579895 .44433595 .10499573 .3963318 .069992069 .3643341 .0309906 .31330873 .0309906 .3033142 .0309906 .28930665 .042999269 .28930665 .053985597 .28930665 .068984989 .28930665 .069992069 .29031373 .07899475 .3013153 .116989139 .34832765 .18299866 .34832765 .20199585 .34832765H.2619934C.23699951 .26930238 .19699097 .18727112 .14299011 .08622742 .1269989 .05621338 .12399292 .051223756 .12399292 .037216188 .12399292 .01020813 .1459961-.007797241 .17199707-.007797241 .19299317-.007797241 .20799256 .0032043458 .21499634 .00920105 .22999573 .02420044 .23098755 .028213501 .23599243 .049209596L.31199647 .34832765Z"/>
<path id="font_1_1" d="M.32998658 .28800965 .33999635 .35005189C.34199525 .3620758 .35299684 .42512513 .35299684 .43112184 .35299684 .45513917 .32998658 .47213746 .30599977 .47213746 .28199769 .47213746 .25898744 .45513917 .25898744 .43112184 .25898744 .42512513 .2639923 .39509584 .2669983 .38008119 .272995 .34605409 .27999879 .3030243 .28199769 .28800965 .2649994 .29901124 .19400025 .35005189 .1639862 .3700714 .13999939 .38809205 .13798523 .38809205 .12599182 .38809205 .102996829 .38809205 .07998657 .36706544 .07998657 .3380432 .07998657 .31002809 .09899902 .3020172 .100997928 .3000183 .11199951 .2960205 .1519928 .28401185 .25 .24998474 .13699341 .21095276 .10699463 .2029419 .09899902 .19793701 .08699036 .18992615 .07998657 .17892456 .07998657 .16191101 .07998657 .1328888 .102996829 .11187744 .12599182 .11187744 .13798523 .11187744 .14099121 .11387634 .16099549 .12687683L.28199769 .21194458 .27198792 .14990235C.269989 .13789368 .25898744 .07583618 .25898744 .0688324 .25898744 .043823244 .28199769 .027816773 .30599977 .027816773 .32998658 .027816773 .35299684 .044815065 .35299684 .0688324 .35299684 .07484436 .34799195 .099853519 .34399415 .12588501 .33898927 .15490723 .33399964 .18292237 .32998658 .21194458 .34700013 .200943 .41799928 .14990235 .44799806 .12988281 .47200013 .11187744 .47399903 .11187744 .48599244 .11187744 .5089874 .11187744 .5319977 .1328888 .5319977 .16191101 .5319977 .18992615 .5130005 .19793701 .5109863 .19993592 .5 .20394898 .45999146 .21595764 .3619995 .24998474 .47499085 .28901673 .5049896 .29701234 .5130005 .3020172 .5249939 .31002809 .5319977 .32102967 .5319977 .3380432 .5319977 .36706544 .5089874 .38809205 .48599244 .38809205 .47399903 .38809205 .47099305 .38609315 .45098878 .3730774L.32998658 .28800965Z"/>
<path id="font_2_2" d="M.44198609 .39738465C.41299439 .3843994 .3939972 .35440064 .3939972 .32640077 .3939972 .29341126 .41799928 .27441407 .44898988 .27441407 .48799134 .27441407 .5269928 .30740357 .5269928 .35740663 .5269928 .41511537 .46998597 .453125 .3769989 .453125 .16899109 .453125 .049987794 .30441285 .049987794 .16931153 .049987794-.008804321 .24398804-.008804321 .2849884-.008804321 .32398988-.008804321 .3869934-.007797241 .44400025 .010192871 .5009918 .029190064 .54599 .069229129 .54599 .085235599 .54599 .09625244 .5269928 .11627197 .5159912 .11627197 .5089874 .11627197 .5069885 .11326599 .5 .10626221 .47599793 .084243778 .4249878 .033203126 .28199769 .033203126 .21199036 .033203126 .17298889 .06121826 .17298889 .12727356 .17298889 .16731262 .19699097 .28041078 .23098755 .33241273 .2669983 .3874054 .32499696 .41111756 .37799073 .41111756 .3869934 .41111756 .41600038 .41111756 .44198609 .39738465Z"/>
<path id="font_2_1" d="M.95500186 .61979678C.9779968 .632782 1.0149994 .63378909 1.0309906 .63378909 1.0499878 .63378909 1.0690003 .63378909 1.0690003 .66477969 1.0690003 .67678835 1.0589905 .68577578 1.0479889 .68577578 1.04599 .68577578 1.0009918 .68278506 .9949951 .68278506H.93899539C.8549957 .68278506 .83299258 .68577578 .82598879 .68577578 .81900027 .68577578 .7969971 .68577578 .7969971 .65478518 .7969971 .63378909 .81700137 .63378909 .83099368 .63378909 .86898806 .63378909 .8819885 .6287842 .8919983 .6247864L.7859955 .19993592 .47999574 .66778567C.46798707 .68478396 .46699525 .68577578 .44198609 .68577578H.2539978C.23399353 .68577578 .21499634 .68577578 .21499634 .65478518 .21499634 .63378909 .23498535 .63378909 .25099183 .63378909H.27198792C.28399659 .63378909 .2999878 .63378909 .31199647 .632782L.1749878 .082977298C.17098999 .06498718 .16999817 .06199646 .14498902 .056991579 .12199402 .051986696 .099990848 .051986696 .08898926 .051986696 .07798767 .051986696 .055999757 .051986696 .055999757 .020996094 .055999757 .01499939 .06098938 0 .07798767 0 .09399414 0 .114990238 .0019989014 .1309967 .0029907227H.18598938C.269989 .0029907227 .29299928 0 .2999878 0 .31098939 0 .32899476 .0039978029 .32899476 .0309906 .32899476 .051986696 .30799867 .051986696 .29499818 .051986696 .27398683 .051986696 .2539978 .052993776 .23298645 .06098938L.3659973 .59080508 .7409973 .016998291C.7509918 .0019989014 .7519989 0 .772995 0 .7969971 0 .8009949 .0039978029 .8069916 .0289917L.95500186 .61979678Z"/>
<path id="font_3_1" d="M.5970001 .60469058C.5970001 .6416626 .59999087 .6516571 .6719971 .6516571H.69200137V.68066409H.040985109V.6516571H.06098938C.1329956 .6516571 .13598633 .6416626 .13598633 .60469058V.07597351C.13598633 .038986207 .1329956 .0289917 .06098938 .0289917H.040985109V0C.06498718 .0019989014 .14698792 .0019989014 .17599488 .0019989014 .20599365 .0019989014 .28799439 .0019989014 .31199647 0V.0289917H.2919922C.21998596 .0289917 .21699524 .038986207 .21699524 .07597351V.6516571H.5159912V.07597351C.5159912 .038986207 .5130005 .0289917 .44099427 .0289917H.42099V0C.44499208 .0019989014 .5269928 .0019989014 .55599978 .0019989014 .58599856 .0019989014 .66799929 .0019989014 .69200137 0V.0289917H.6719971C.59999087 .0289917 .5970001 .038986207 .5970001 .07597351V.60469058Z"/>
<path id="font_4_1" d="M.5399933 .27427674C.48098756 .34529115 .47299195 .353302 .43798829 .37930299 .3919983 .41430665 .33099366 .4413147 .2649994 .4413147 .14299011 .4413147 .05899048 .33428956 .05899048 .215271 .05899048 .098236087 .14199829-.009765625 .26098634-.009765625 .34298707-.009765625 .43899537 .033233644 .5219879 .15725708 .58099368 .086242679 .58898928 .07823181 .6239929 .052230836 .66999819 .017227173 .73098757-.009765625 .7969971-.009765625 .9189911-.009765625 1.0029907 .09724426 1.0029907 .21626282 1.0029907 .33329774 .91999819 .4413147 .8009949 .4413147 .71899417 .4413147 .6230011 .39831544 .5399933 .27427674M.56999209 .23727417C.60798647 .30029298 .6899872 .4033203 .80799868 .4033203 .9149933 .4033203 .97499087 .30628968 .97499087 .21626282 .97499087 .11924744 .901001 .04423523 .8129883 .04423523 .72499087 .04423523 .66600039 .117248538 .56999209 .23727417M.49198915 .19425965C.45399476 .1312561 .37199403 .02822876 .2539978 .02822876 .14698792 .02822876 .08699036 .12524414 .08699036 .215271 .08699036 .31228639 .16099549 .38731385 .24899292 .38731385 .33699037 .38731385 .3959961 .31428529 .49198915 .19425965Z"/>
<path id="font_5_1" d="M.71598818 .51594546C.7279968 .52194216 .7369995 .52793887 .7369995 .54093936 .7369995 .5539398 .72698977 .5639343 .71398928 .5639343 .71099856 .5639343 .70899966 .5639343 .69599917 .55693057L.10899353 .27497865C.09700012 .26898194 .08799744 .26298524 .08799744 .24998474 .08799744 .23698426 .09700012 .23098755 .10899353 .22499085L.69599917-.05697632C.70899966-.0639801 .71099856-.0639801 .71398928-.0639801 .72698977-.0639801 .7369995-.053970338 .7369995-.04096985 .7369995-.02798462 .7279968-.021972657 .71598818-.015975953L.1639862 .24998474 .71598818 .51594546Z"/>
<path id="font_5_3" d="M.5379944 .66430667C.5389862 .66630557 .5419922 .67930606 .5419922 .68029788 .5419922 .68530276 .5379944 .6943054 .526001 .6943054 .5219879 .6943054 .4909973 .69129946 .46798707 .68930056L.4119873 .68530276C.3899994 .68330386 .37998963 .682312 .37998963 .66430667 .37998963 .6502991 .3939972 .6502991 .4059906 .6502991 .45399476 .6502991 .45399476 .64430239 .45399476 .63531497 .45399476 .62931826 .44599916 .59632876 .44099427 .5763397L.3919983 .38137818C.3829956 .39839173 .35398866 .44140626 .29299928 .44140626 .17399597 .44140626 .042999269 .3023529 .042999269 .15428162 .042999269 .050247194 .10998535-.009765625 .18699646-.009765625 .25099183-.009765625 .30599977 .041229249 .32398988 .06124878 .34199525-.0077667238 .4099884-.009765625 .42199708-.009765625 .46798707-.009765625 .4909973 .02822876 .49899293 .04524231 .5189972 .08125305 .5329895 .13928223 .5329895 .14328003 .5329895 .14927674 .5289917 .15628052 .5169983 .15628052 .5049896 .15628052 .5029907 .15028382 .49699403 .12527466 .48298646 .070251468 .46398927 .018234253 .4249878 .018234253 .4019928 .018234253 .3929901 .037231447 .3929901 .06524658 .3929901 .08425903 .3959961 .09526062 .39898683 .10826111L.5379944 .66430667M.32398988 .10826111C.27398683 .039230348 .22200012 .018234253 .18998719 .018234253 .14399719 .018234253 .12098694 .0602417 .12098694 .11227417 .12098694 .1592865 .147995 .2663269 .16999817 .3103485 .19898987 .37138368 .24798584 .4133911 .2939911 .4133911 .35899354 .4133911 .37799073 .34036256 .37799073 .32835389 .37799073 .32435609 .35299684 .22631836 .34700013 .20030213 .33399964 .1532898 .33399964 .1512909 .32398988 .10826111Z"/>
<path id="font_5_2" d="M.7919922 .5736542C.80400088 .6226196 .82598879 .64660647 .897995 .6496124 .9079895 .6496124 .91600039 .65560916 .91600039 .6686096 .91600039 .6746063 .9109955 .6826172 .901001 .6826172 .8939972 .6826172 .875 .6796112 .8009949 .6796112 .72099307 .6796112 .70799258 .6826172 .69898989 .6826172 .68299868 .6826172 .6799927 .6716156 .6799927 .66360476 .6799927 .65060427 .69299319 .6496124 .70199587 .6496124 .7630005 .6476135 .7630005 .6206207 .7630005 .6066284 .7630005 .6016388 .7630005 .5966339 .7589874 .58065798L.6489868 .14292908 .4079895 .6646118C.3999939 .6826172 .397995 .6826172 .37399293 .6826172H.24398804C.22599793 .6826172 .21299744 .6826172 .21299744 .66360476 .21299744 .6496124 .22499085 .6496124 .24598694 .6496124 .2539978 .6496124 .28399659 .6496124 .30699159 .6436157L.17298889 .10694885C.16099549 .05697632 .1349945 .034988405 .067993167 .032989503 .06199646 .032989503 .049987794 .03199768 .049987794 .01399231 .049987794 .0079956059 .054992677 0 .06498718 0 .068984989 0 .09199524 .0029907227 .1639862 .0029907227 .24299622 .0029907227 .2579956 0 .2669983 0 .2709961 0 .28599549 0 .28599549 .018997193 .28599549 .0309906 .2749939 .032989503 .2679901 .032989503 .23199463 .033996583 .20199585 .039993287 .20199585 .07496643 .20199585 .079956058 .20498657 .093948367 .20498657 .094955448L.33599855 .6166229H.33699037L.61499026 .017990113C.621994 .0019989014 .6230011 0 .6339874 0 .647995 0 .6489868 .0039978029 .6529999 .020996094L.7919922 .5736542Z"/>
<path id="font_6_1" d="M.4889984 .31877137C.4889984 .42585755 .47799684 .49090577 .44499208 .55496218 .40098573 .6430359 .31999208 .66503909 .2649994 .66503909 .13899231 .66503909 .09298706 .5709839 .07899475 .5429535 .042999269 .4698944 .040985109 .3708191 .040985109 .31877137 .040985109 .25271607 .04399109 .15162659 .09199524 .07156372 .13798523-.0024871827 .21199036-.021484375 .2649994-.021484375 .31298829-.021484375 .39898683-.0064849855 .44898988 .09257507 .48599244 .16464234 .4889984 .2537079 .4889984 .31877137M.2649994 .006515503C.23098755 .006515503 .1619873 .022521973 .14099121 .12760926 .12998963 .18466187 .12998963 .2787323 .12998963 .33078004 .12998963 .3998413 .12998963 .4698944 .14099121 .5249481 .1619873 .6270294 .23999024 .6370239 .2649994 .6370239 .29899598 .6370239 .36799623 .62002566 .3880005 .5289459 .3999939 .4738922 .3999939 .39883424 .3999939 .33078004 .3999939 .27172853 .3999939 .18165589 .3880005 .12561035 .36698915 .020523072 .2979889 .006515503 .2649994 .006515503Z"/>
<path id="font_7_1" d="M.70599368 .269989H.6639862C.6429901 .12098694 .60598757 .042999269 .43199159 .042999269H.27598573V.33198548H.33499146C.43099977 .33198548 .44099427 .29100038 .44099427 .21499634H.48298646V.49179078H.44099427C.44099427 .4169159 .43099977 .375 .33499146 .375H.27598573V.6375427H.43199159C.58499148 .6375427 .6179962 .5726471 .6329956 .44387818H.6749878L.6459961 .680542H.037994386V.6375427H.14399719V.042999269H.037994386V0H.6629944L.70599368 .269989Z"/>
<path id="font_7_11" d="M.33699037 .24717713 .45298768 .38031007C.46398927 .3933258 .47299195 .4013214 .55599978 .4013214V.44433595C.5 .44232179 .49798585 .44232179 .46398927 .44232179 .43499757 .44232179 .3919983 .44232179 .3639984 .44433595V.4013214C.3829956 .4013214 .4039917 .3963318 .4039917 .38931275 .4039917 .38731385 .39898683 .38031007 .39698792 .37831117L.30999757 .2802124 .21099854 .4013214H.25299073V.44433595C.22999573 .44232179 .1619873 .44232179 .1349945 .44232179 .10499573 .44232179 .050994874 .44232179 .022994996 .44433595V.4013214H.09399414L.25 .21115113 .11999512 .06401062C.10798645 .05000305 .100997928 .042999269 .017990113 .042999269V0C.07798767 .0019989014 .07998657 .0019989014 .11099243 .0019989014 .13999939 .0019989014 .18199158 .0019989014 .20999146 0V.042999269C.19099427 .042999269 .16999817 .04800415 .16999817 .055007936 .16999817 .055999757 .16999817 .057006837 .1769867 .0650177L.2769928 .17811585 .3880005 .042999269H.34599305V0C.36999513 .0019989014 .43699647 .0019989014 .46499635 .0019989014 .49499513 .0019989014 .5479889 .0019989014 .57598879 0V.042999269H.5059967L.33699037 .24717713Z"/>
<path id="font_7_7" d="M.28199769-.15133667H.21299744V.041137697C.23799134 .019134522 .28199769-.005859375 .34199525-.005859375 .47898866-.005859375 .58599856 .07713318 .58599856 .22315979 .58599856 .36117555 .49299623 .4501953 .35798646 .4501953 .29899598 .4501953 .24798584 .43019105 .20799256 .3981781V.4501953L.034988405 .44218446V.39918519C.09700012 .39918519 .10398865 .39918519 .10398865 .36018373V-.15133667H.034988405V-.19433594C.057998659-.19233704 .12998963-.19233704 .1579895-.19233704 .18598938-.19233704 .25898744-.19233704 .28199769-.19433594V-.15133667M.21299744 .35017396C.25 .3981781 .30299378 .41418458 .34199525 .41418458 .40699769 .41418458 .46598817 .35517884 .46598817 .22315979 .46598817 .07814026 .3939972 .027130127 .32998658 .027130127 .2869873 .027130127 .24398804 .0491333 .21299744 .09614563V.35017396Z"/>
<path id="font_7_4" d="M.21699524 .69433596 .04399109 .6863251V.6433258C.10598755 .6433258 .11299133 .6433258 .11299133 .6043091V.042999269H.04399109V0C.066986087 .0019989014 .13798523 .0019989014 .16499329 .0019989014 .19198609 .0019989014 .2630005 .0019989014 .28599549 0V.042999269H.21699524V.69433596Z"/>
<path id="font_7_6" d="M.5299988 .21913147C.5299988 .35412599 .43798829 .453125 .2809906 .453125 .117996219 .453125 .0309906 .3491211 .0309906 .21913147 .0309906 .088134769 .12298584-.005859375 .27999879-.005859375 .44299317-.005859375 .5299988 .09312439 .5299988 .21913147M.2809906 .030136109C.15098572 .030136109 .15098572 .14712525 .15098572 .22912598 .15098572 .27612306 .15098572 .3261261 .16999817 .36212159 .19198609 .40211488 .23699951 .42012025 .27999879 .42012025 .33699037 .42012025 .37298585 .39311219 .3899994 .3651123 .4099884 .32911683 .4099884 .27713014 .4099884 .22912598 .4099884 .14613343 .4099884 .030136109 .2809906 .030136109Z"/>
<path id="font_7_8" d="M.20799256 .2250824C.20799256 .25810243 .21499634 .41719056 .33198548 .41719056 .31799317 .40618897 .31098939 .38917542 .31098939 .37117005 .31098939 .33013917 .34399415 .31314088 .36898805 .31314088 .3939972 .31314088 .4269867 .33013917 .4269867 .37117005 .4269867 .42218019 .375 .4501953 .32699586 .4501953 .24798584 .4501953 .21398926 .38116456 .19999695 .33914186H.19898987V.4501953L.034988405 .44218446V.39918519C.09700012 .39918519 .10398865 .39918519 .10398865 .3601532V.042999269H.034988405V0C.057998659 .0019989014 .1329956 .0019989014 .16099549 .0019989014 .18998719 .0019989014 .2709961 .0019989014 .29499818 0V.042999269H.20799256V.2250824Z"/>
<path id="font_7_2" d="M.45999146 .29933167C.45999146 .39115907 .3869934 .453125 .24598694 .453125 .18998719 .453125 .07199097 .44812013 .07199097 .36421205 .07199097 .32228089 .10398865 .3043213 .1309967 .3043213 .16099549 .3043213 .18998719 .32528688 .18998719 .3632202 .18998719 .3821869 .18299866 .40014649 .1659851 .4111328 .19898987 .42012025 .22299195 .42012025 .24198914 .42012025 .30999757 .42012025 .35099793 .3821869 .35099793 .3003235V.26039125C.19299317 .26039125 .033996583 .21636963 .033996583 .10522461 .033996583 .014129639 .1499939-.005859375 .21899414-.005859375 .29599-.005859375 .34498597 .03614807 .36499024 .080200199 .36499024 .043151857 .36499024 .0001373291 .46598817 .0001373291H.5169983C.5379944 .0001373291 .54599 .0001373291 .54599 .022140503 .54599 .043151857 .5369873 .043151857 .522995 .043151857 .45999146 .044158937 .45999146 .060180665 .45999146 .08320618V.29933167M.35099793 .13926697C.35099793 .045150758 .2669983 .027130127 .23498535 .027130127 .18598938 .027130127 .14498902 .060180665 .14498902 .10623169 .14498902 .19734192 .25299073 .2283783 .35099793 .23339844V.13926697Z"/>
<path id="font_7_10" d="M.21099854 .4013214H.35499574V.44433595H.21099854V.6352234H.16899109C.16799927 .53627017 .11999512 .43733216 .020996094 .43432618V.4013214H.101989749V.123184207C.101989749 .01713562 .18399048-.005859375 .2559967-.005859375 .32998658-.005859375 .37399293 .05014038 .37399293 .124176029V.17721558H.33198548V.1251831C.33198548 .059143068 .3019867 .030136109 .2709961 .030136109 .21099854 .030136109 .21099854 .09716797 .21099854 .12017822V.4013214Z"/>
<path id="font_7_3" d="M.22299195 .6233063C.22299195 .66430667 .18998719 .6953125 .15098572 .6953125 .10998535 .6953125 .07899475 .66130068 .07899475 .6233063 .07899475 .5853119 .10998535 .55130007 .15098572 .55130007 .18998719 .55130007 .22299195 .5823059 .22299195 .6233063M.04699707 .44218446V.39918519C.10598755 .39918519 .11299133 .39918519 .11299133 .36016847V.042999269H.04399109V0C.066986087 .0019989014 .13598633 .0019989014 .16299439 .0019989014 .19099427 .0019989014 .25498963 .0019989014 .2789917 0V.042999269H.21699524V.4501953L.04699707 .44218446Z"/>
<path id="font_7_5" d="M.5309906 .30613709C.5309906 .40118409 .48999024 .4501953 .37998963 .4501953 .30799867 .4501953 .24598694 .41519166 .21199036 .34014894H.21099854V.4501953L.041992189 .44218446V.39918519C.10398865 .39918519 .11099243 .39918519 .11099243 .3601532V.042999269H.041992189V0C.06498718 .0019989014 .13699341 .0019989014 .16499329 .0019989014 .19299317 .0019989014 .2659912 .0019989014 .2889862 0V.042999269H.21998596V.25610353C.21998596 .36416627 .2999878 .41719056 .3639984 .41719056 .40098573 .41719056 .42199708 .39317323 .42199708 .31713868V.042999269H.35299684V0C.37599183 .0019989014 .44799806 .0019989014 .47599793 .0019989014 .5039978 .0019989014 .57699587 .0019989014 .59999087 0V.042999269H.5309906V.30613709Z"/>
<path id="font_8_1" d="M.25898744 .3766632H.37199403C.34498597 .26483155 .32798768 .19194031 .32798768 .112075809 .32798768 .098083499 .32798768-.009765625 .36898805-.009765625 .3899994-.009765625 .4079895 .009231567 .4079895 .02619934 .4079895 .031188965 .4079895 .033187868 .40098573 .048171998 .37399293 .11706543 .37399293 .20292664 .37399293 .20991516 .37399293 .21591187 .37399293 .28678895 .394989 .3766632H.5069885C.519989 .3766632 .5529938 .3766632 .5529938 .4086609 .5529938 .43066407 .5339966 .43066407 .5159912 .43066407H.18699646C.1639862 .43066407 .12998963 .43066407 .083999637 .38165284 .057998659 .35269166 .025985718 .29977418 .025985718 .29377748 .025985718 .28779603 .0309906 .28579713 .036987306 .28579713 .04399109 .28579713 .04499817 .28878785 .049987794 .29478456 .101989749 .3766632 .1539917 .3766632 .1789856 .3766632H.23599243C.21398926 .30177308 .18899536 .21490479 .10699463 .04017639 .09899902 .02420044 .09899902 .022216797 .09899902 .016220093 .09899902-.004776001 .116989139-.009765625 .12599182-.009765625 .15499878-.009765625 .16299439 .016220093 .1749878 .058151246 .19099427 .109069827 .19099427 .111068729 .20098877 .15100098L.25898744 .3766632Z"/>
<path id="font_7_9" d="M.3769989 .42712403C.3769989 .44612123 .3769989 .453125 .3619995 .453125 .35598756 .453125 .35398866 .453125 .33898927 .4441223 .33499146 .44111634 .32398988 .43411256 .31900025 .43112184 .29100038 .44711305 .2539978 .453125 .21798706 .453125 .18798828 .453125 .037994386 .453125 .037994386 .32312013 .037994386 .21812439 .1619873 .19612122 .19299317 .19113159 .21998596 .18612671 .25299073 .18013 .25698854 .18013 .29699708 .17112732 .33699037 .14613343 .33699037 .10412598 .33699037 .027130127 .24598694 .027130127 .22499085 .027130127 .17399597 .027130127 .11099243 .043136598 .08299255 .14012146 .07699585 .16012573 .07598877 .16113281 .05899048 .16113281 .037994386 .16113281 .037994386 .15812683 .037994386 .13513184V.020126343C.037994386 .0011291504 .037994386-.005859375 .052993776-.005859375 .05999756-.005859375 .06199646-.005859375 .08198547 .010131836L.10798645 .029129029C.15299988-.005859375 .20698548-.005859375 .22499085-.005859375 .27999879-.005859375 .40499879 .006134033 .40499879 .13912964 .40499879 .18713379 .3789978 .22012329 .35899354 .23812866 .31799317 .27212525 .28399659 .27812196 .22999573 .28811646 .1659851 .29911805 .10598755 .31011964 .10598755 .35812379 .10598755 .42311097 .19499207 .42311097 .21598816 .42311097 .32699586 .42311097 .33299256 .3531189 .33499146 .328125 .33599855 .3151245 .34399415 .3151245 .35598756 .3151245 .3769989 .3151245 .3769989 .31811524 .3769989 .3411255V.42712403Z"/>
</defs>
<path transform="matrix(1,0,0,-1,9.63,117.254009)" d="M48.18991-17.00824C100.34099-17.00824 70.68906-30.67719 144.56977 0 218.45044 30.67719 235.61339 29.99332 252.99709 68.03302 270.38078 106.07274 231.87299 111.58658 192.75968 105.45113 153.64638 99.3157 196.72083 76.7936 144.56977 51.02477 92.41867 25.25594 100.34099 52.42282 48.18991 34.0165-3.96114 15.61018 0 18.40631 0 0 0-18.40631-3.96114-17.00824 48.18991-17.00824Z" fill="#0f8554" fill-opacity=".1"/>
<path transform="matrix(1,0,0,-1,9.63,117.254009)" d="M48.18991-13.60663C80.95255-14.07863 90.38661-10.85536 120.4748 0 150.56298 10.85536 156.61724 16.0729 156.61724 25.51236 156.61724 34.95181 150.56298 31.65663 120.4748 34.0165 90.38661 36.37636 80.95255 42.98395 48.18991 34.0165 15.42726 25.04906 2.40962 14.91615 2.40962 1.70091 2.40962-11.51431 15.42726-13.13464 48.18991-13.60663Z" fill="#ffffff"/>
<path transform="matrix(1,0,0,-1,9.63,117.254009)" d="M48.18991-13.60663C80.95255-14.07863 90.38661-10.85536 120.4748 0 150.56298 10.85536 156.61724 16.0729 156.61724 25.51236 156.61724 34.95181 150.56298 31.65663 120.4748 34.0165 90.38661 36.37636 80.95255 42.98395 48.18991 34.0165 15.42726 25.04906 2.40962 14.91615 2.40962 1.70091 2.40962-11.51431 15.42726-13.13464 48.18991-13.60663Z" fill="#5f4690" fill-opacity=".1"/>
<path transform="matrix(1,0,0,-1,9.63,117.254009)" stroke-width="1.19553" stroke-linecap="butt" stroke-dasharray="2.98883,2.98883" stroke-miterlimit="10" stroke-linejoin="miter" fill="none" stroke="#5f4690" d="M48.18991-13.60663C80.95255-14.07863 90.38661-10.85536 120.4748 0 150.56298 10.85536 156.61724 16.0729 156.61724 25.51236 156.61724 34.95181 150.56298 31.65663 120.4748 34.0165 90.38661 36.37636 80.95255 42.98395 48.18991 34.0165 15.42726 25.04906 2.40962 14.91615 2.40962 1.70091 2.40962-11.51431 15.42726-13.13464 48.18991-13.60663Z"/>
<path transform="matrix(1,0,0,-1,9.63,117.254009)" d="M36.14243-5.10251C44.50026-5.3385 63.92703 1.51369 72.28487 3.40158 80.6427 5.28947 89.69357 6.14426 96.37984 8.50412 103.06609 10.86397 118.80322 17.34201 120.4748 20.40985 122.14635 23.47768 119.1253 29.90694 108.42729 30.6149 97.7293 31.32285 56.7435 29.05215 43.37097 25.51236 29.99846 21.97256 13.05038 9.35028 12.04745 5.10251 11.04453 .85475 27.78459-4.86652 36.14243-5.10251Z" fill="#5f4690" fill-opacity=".1"/>
<path transform="matrix(1,0,0,-1,9.63,117.254009)" stroke-width=".99628" stroke-linecap="butt" stroke-miterlimit="10" stroke-linejoin="miter" fill="none" stroke="#5f4690" d="M36.14243-5.10251C44.50026-5.3385 63.92703 1.51369 72.28487 3.40158 80.6427 5.28947 89.69357 6.14426 96.37984 8.50412 103.06609 10.86397 118.80322 17.34201 120.4748 20.40985 122.14635 23.47768 119.1253 29.90694 108.42729 30.6149 97.7293 31.32285 56.7435 29.05215 43.37097 25.51236 29.99846 21.97256 13.05038 9.35028 12.04745 5.10251 11.04453 .85475 27.78459-4.86652 36.14243-5.10251Z"/>
<path transform="matrix(1,0,0,-1,9.63,117.254009)" d="M195.57776 80.78922C195.57776 82.34561 194.31607 83.6073 192.75968 83.6073 191.2033 83.6073 189.9416 82.34561 189.9416 80.78922 189.9416 79.23282 191.2033 77.97113 192.75968 77.97113 194.31607 77.97113 195.57776 79.23282 195.57776 80.78922ZM192.75968 80.78922" fill="#0f8554"/>
<use data-text="&#x03c0;" xlink:href="#font_0_1" transform="matrix(11.9552,0,0,-11.9552,203.83,32.715005)" fill="#0f8554"/>
<use data-text="&#x2217;" xlink:href="#font_1_1" transform="matrix(7.9701,0,0,-7.9701,212.431,28.377007)" fill="#0f8554"/>
<use data-text="c" xlink:href="#font_2_2" transform="matrix(7.9701,0,0,-7.9701,211.989,36.412004)" fill="#0f8554"/>
<path transform="matrix(1,0,0,-1,9.63,117.254009)" d="M120.88322 6.80318C120.88322 8.35957 119.62154 9.62126 118.06514 9.62126 116.50874 9.62126 115.24706 8.35957 115.24706 6.80318 115.24706 5.24678 116.50874 3.9851 118.06514 3.9851 119.62154 3.9851 120.88322 5.24678 120.88322 6.80318ZM118.06514 6.80318" fill="#5f4690"/>
<use data-text="&#x03c0;" xlink:href="#font_0_1" transform="matrix(11.9552,0,0,-11.9552,128.582,107.108)" fill="#5f4690"/>
<use data-text="N" xlink:href="#font_2_1" transform="matrix(7.9701,0,0,-7.9701,136.74,108.90201)" fill="#5f4690"/>
<use data-text="&#x03a0;" xlink:href="#font_3_1" transform="matrix(11.9552,0,0,-11.9552,240.468,25.988007)"/>
<use data-text="&#x221e;" xlink:href="#font_4_1" transform="matrix(7.9701,0,0,-7.9701,249.244,21.65001)"/>
<use data-text="&#x003c;" xlink:href="#font_5_1" transform="matrix(7.9701,0,0,-7.9701,249.244,29.097008)"/>
<use data-text="d" xlink:href="#font_5_3" transform="matrix(7.9701,0,0,-7.9701,255.8273,29.097008)"/>
<use data-text="&#x03a0;" xlink:href="#font_3_1" transform="matrix(11.9552,0,0,-11.9552,136.86101,98.23001)"/>
<use data-text="N" xlink:href="#font_5_2" transform="matrix(7.9701,0,0,-7.9701,145.636,93.89101)"/>
<use data-text="&#x003c;" xlink:href="#font_5_1" transform="matrix(7.9701,0,0,-7.9701,145.636,101.339008)"/>
<use data-text="d" xlink:href="#font_5_3" transform="matrix(7.9701,0,0,-7.9701,152.2193,101.339008)"/>
<use data-text="&#x03a0;" xlink:href="#font_3_1" transform="matrix(11.9552,0,0,-11.9552,69.395999,103.177)"/>
<use data-text="0" xlink:href="#font_6_1" transform="matrix(7.9701,0,0,-7.9701,78.171,98.839008)"/>
<use data-text="&#x003c;" xlink:href="#font_5_1" transform="matrix(7.9701,0,0,-7.9701,78.171,106.286)"/>
<use data-text="d" xlink:href="#font_5_3" transform="matrix(7.9701,0,0,-7.9701,84.7543,106.286)"/>
<use data-text="E" xlink:href="#font_7_1" transform="matrix(11.9552,0,0,-11.9552,11.245,28.39901)"/>
<use data-text="x" xlink:href="#font_7_11" transform="matrix(11.9552,0,0,-11.9552,20.067938,28.39901)"/>
<use data-text="p" xlink:href="#font_7_7" transform="matrix(11.9552,0,0,-11.9552,27.169327,28.39901)"/>
<use data-text="l" xlink:href="#font_7_4" transform="matrix(11.9552,0,0,-11.9552,34.641328,28.39901)"/>
<use data-text="o" xlink:href="#font_7_6" transform="matrix(11.9552,0,0,-11.9552,38.383306,28.39901)"/>
<use data-text="r" xlink:href="#font_7_8" transform="matrix(11.9552,0,0,-11.9552,45.114084,28.39901)"/>
<use data-text="a" xlink:href="#font_7_2" transform="matrix(11.9552,0,0,-11.9552,50.613477,28.39901)"/>
<use data-text="t" xlink:href="#font_7_10" transform="matrix(11.9552,0,0,-11.9552,57.15297,28.39901)"/>
<use data-text="i" xlink:href="#font_7_3" transform="matrix(11.9552,0,0,-11.9552,62.389348,28.39901)"/>
<use data-text="o" xlink:href="#font_7_6" transform="matrix(11.9552,0,0,-11.9552,66.131328,28.39901)"/>
<use data-text="n" xlink:href="#font_7_5" transform="matrix(11.9552,0,0,-11.9552,72.86211,28.39901)"/>
<path transform="matrix(1,0,0,-1,9.63,117.254009)" d="M26.91302 8.50412C26.91302 10.06052 25.65134 11.3222 24.09494 11.3222 22.53856 11.3222 21.27687 10.06052 21.27687 8.50412 21.27687 6.94772 22.53856 5.68604 24.09494 5.68604 25.65134 5.68604 26.91302 6.94772 26.91302 8.50412ZM24.09494 8.50412"/>
<use data-text="&#x03c0;" xlink:href="#font_8_1" transform="matrix(11.9552,0,0,-11.9552,35.267,105.325008)"/>
<use data-text="0" xlink:href="#font_6_1" transform="matrix(7.9701,0,0,-7.9701,41.906999,107.118007)"/>
<path transform="matrix(1,0,0,-1,9.63,117.254009)" d="M301.187-17.00824C353.33808-17.00824 323.68614-30.67719 397.56687 0 471.44755 30.67719 488.6105 29.99332 505.9942 68.03302 523.37789 106.07274 484.8701 111.58658 445.75679 105.45113 406.64347 99.3157 449.7179 76.7936 397.56687 51.02477 345.41578 25.25594 353.33808 52.42282 301.187 34.0165 249.03592 15.61018 252.99709 18.40631 252.99709 0 252.99709-18.40631 249.03592-17.00824 301.187-17.00824Z" fill="#0f8554" fill-opacity=".1"/>
<path transform="matrix(1,0,0,-1,9.63,117.254009)" d="M301.187-13.60663C340.6359-11.71877 350.763-9.43085 397.56687 8.50412 444.37068 26.43909 455.14198 26.24617 469.8517 51.02477 484.5615 75.80333 470.6345 99.21341 450.57569 97.79747 430.5169 96.38155 439.02165 63.6212 397.56687 45.92223 356.11204 28.22325 340.6359 46.28775 301.187 34.0165 261.73808 21.74525 255.40671 14.91615 255.40671 1.70091 255.40671-11.51431 261.73808-15.49449 301.187-13.60663Z" fill="#ffffff"/>
<path transform="matrix(1,0,0,-1,9.63,117.254009)" d="M301.187-13.60663C340.6359-11.71877 350.763-9.43085 397.56687 8.50412 444.37068 26.43909 455.14198 26.24617 469.8517 51.02477 484.5615 75.80333 470.6345 99.21341 450.57569 97.79747 430.5169 96.38155 439.02165 63.6212 397.56687 45.92223 356.11204 28.22325 340.6359 46.28775 301.187 34.0165 261.73808 21.74525 255.40671 14.91615 255.40671 1.70091 255.40671-11.51431 261.73808-15.49449 301.187-13.60663Z" fill="#5f4690" fill-opacity=".1"/>
<path transform="matrix(1,0,0,-1,9.63,117.254009)" stroke-width="1.19553" stroke-linecap="butt" stroke-dasharray="2.98883,2.98883" stroke-miterlimit="10" stroke-linejoin="miter" fill="none" stroke="#5f4690" d="M301.187-13.60663C340.6359-11.71877 350.763-9.43085 397.56687 8.50412 444.37068 26.43909 455.14198 26.24617 469.8517 51.02477 484.5615 75.80333 470.6345 99.21341 450.57569 97.79747 430.5169 96.38155 439.02165 63.6212 397.56687 45.92223 356.11204 28.22325 340.6359 46.28775 301.187 34.0165 261.73808 21.74525 255.40671 14.91615 255.40671 1.70091 255.40671-11.51431 261.73808-15.49449 301.187-13.60663Z"/>
<path transform="matrix(1,0,0,-1,9.63,117.254009)" d="M289.13954-5.10251C297.49736-5.3385 316.92414 1.51369 325.28196 3.40158 333.63978 5.28947 342.69068 6.14426 349.37693 8.50412 356.06318 10.86397 371.80033 17.34201 373.4719 20.40985 375.14344 23.47768 372.1224 29.90694 361.4244 30.6149 350.7264 31.32285 309.7406 29.05215 296.36808 25.51236 282.99559 21.97256 266.0475 9.35028 265.04457 5.10251 264.04164 .85475 280.7817-4.86652 289.13954-5.10251Z" fill="#5f4690" fill-opacity=".1"/>
<path transform="matrix(1,0,0,-1,9.63,117.254009)" stroke-width=".99628" stroke-linecap="butt" stroke-miterlimit="10" stroke-linejoin="miter" fill="none" stroke="#5f4690" d="M289.13954-5.10251C297.49736-5.3385 316.92414 1.51369 325.28196 3.40158 333.63978 5.28947 342.69068 6.14426 349.37693 8.50412 356.06318 10.86397 371.80033 17.34201 373.4719 20.40985 375.14344 23.47768 372.1224 29.90694 361.4244 30.6149 350.7264 31.32285 309.7406 29.05215 296.36808 25.51236 282.99559 21.97256 266.0475 9.35028 265.04457 5.10251 264.04164 .85475 280.7817-4.86652 289.13954-5.10251Z"/>
<path transform="matrix(1,0,0,-1,9.63,117.254009)" stroke-width=".99628" stroke-linecap="butt" stroke-miterlimit="10" stroke-linejoin="miter" fill="none" stroke="#5f4690" d="M301.187-13.60663V-18.39116"/>
<path transform="matrix(0,1,1,0,310.81703,135.39609)" d="M4.25066 0 .49814 1.53519V0-1.53519Z" fill="#5f4690"/>
<path transform="matrix(0,1,1,0,310.81703,135.39609)" stroke-width=".99628" stroke-linecap="butt" stroke-miterlimit="10" stroke-linejoin="miter" fill="none" stroke="#5f4690" d="M4.25066 0 .49814 1.53519V0-1.53519Z"/>
<path transform="matrix(1,0,0,-1,9.63,117.254009)" stroke-width=".99628" stroke-linecap="butt" stroke-miterlimit="10" stroke-linejoin="miter" fill="none" stroke="#5f4690" d="M354.19587-6.80318 356.00077-11.89928"/>
<path transform="matrix(.33385,.94257,.94257,-.33385,365.5476,128.91852)" d="M4.25066 0 .49814 1.53519V0-1.53519Z" fill="#5f4690"/>
<path transform="matrix(.33385,.94257,.94257,-.33385,365.5476,128.91852)" stroke-width=".99628" stroke-linecap="butt" stroke-miterlimit="10" stroke-linejoin="miter" fill="none" stroke="#5f4690" d="M4.25066 0 .49814 1.53519V0-1.53519Z"/>
<path transform="matrix(1,0,0,-1,9.63,117.254009)" stroke-width=".99628" stroke-linecap="butt" stroke-miterlimit="10" stroke-linejoin="miter" fill="none" stroke="#5f4690" d="M397.56687 8.50412 400.07148 3.20012"/>
<path transform="matrix(.42697,.9042,.9042,-.42697,409.59513,113.82868)" d="M4.25066 0 .49814 1.53519V0-1.53519Z" fill="#5f4690"/>
<path transform="matrix(.42697,.9042,.9042,-.42697,409.59513,113.82868)" stroke-width=".99628" stroke-linecap="butt" stroke-miterlimit="10" stroke-linejoin="miter" fill="none" stroke="#5f4690" d="M4.25066 0 .49814 1.53519V0-1.53519Z"/>
<path transform="matrix(1,0,0,-1,9.63,117.254009)" stroke-width=".99628" stroke-linecap="butt" stroke-miterlimit="10" stroke-linejoin="miter" fill="none" stroke="#5f4690" d="M439.73304 25.51236 443.1635 19.21646"/>
<path transform="matrix(.47844,.87807,.87807,-.47844,452.67436,97.81883)" d="M4.25066 0 .49814 1.53519V0-1.53519Z" fill="#5f4690"/>
<path transform="matrix(.47844,.87807,.87807,-.47844,452.67436,97.81883)" stroke-width=".99628" stroke-linecap="butt" stroke-miterlimit="10" stroke-linejoin="miter" fill="none" stroke="#5f4690" d="M4.25066 0 .49814 1.53519V0-1.53519Z"/>
<path transform="matrix(1,0,0,-1,9.63,117.254009)" stroke-width=".99628" stroke-linecap="butt" stroke-miterlimit="10" stroke-linejoin="miter" fill="none" stroke="#5f4690" d="M469.8517 51.02477 476.68315 49.09583"/>
<path transform="matrix(.96233,.2717,.2717,-.96233,486.07347,68.0905)" d="M4.25066 0 .49814 1.53519V0-1.53519Z" fill="#5f4690"/>
<path transform="matrix(.96233,.2717,.2717,-.96233,486.07347,68.0905)" stroke-width=".99628" stroke-linecap="butt" stroke-miterlimit="10" stroke-linejoin="miter" fill="none" stroke="#5f4690" d="M4.25066 0 .49814 1.53519V0-1.53519Z"/>
<path transform="matrix(1,0,0,-1,9.63,117.254009)" stroke-width=".99628" stroke-linecap="butt" stroke-miterlimit="10" stroke-linejoin="miter" fill="none" stroke="#5f4690" d="M460.2139 95.24634 463.48243 100.78365"/>
<path transform="matrix(.50832,-.86111,-.86111,-.50832,472.98585,16.684823)" d="M4.25066 0 .49814 1.53519V0-1.53519Z" fill="#5f4690"/>
<path transform="matrix(.50832,-.86111,-.86111,-.50832,472.98585,16.684823)" stroke-width=".99628" stroke-linecap="butt" stroke-miterlimit="10" stroke-linejoin="miter" fill="none" stroke="#5f4690" d="M4.25066 0 .49814 1.53519V0-1.53519Z"/>
<path transform="matrix(1,0,0,-1,9.63,117.254009)" stroke-width=".99628" stroke-linecap="butt" stroke-miterlimit="10" stroke-linejoin="miter" fill="none" stroke="#5f4690" d="M424.07145 66.33208 416.452 71.71065"/>
<path transform="matrix(-.81694,-.57664,-.57664,.81694,426.2855,45.68699)" d="M4.25066 0 .49814 1.53519V0-1.53519Z" fill="#5f4690"/>
<path transform="matrix(-.81694,-.57664,-.57664,.81694,426.2855,45.68699)" stroke-width=".99628" stroke-linecap="butt" stroke-miterlimit="10" stroke-linejoin="miter" fill="none" stroke="#5f4690" d="M4.25066 0 .49814 1.53519V0-1.53519Z"/>
<path transform="matrix(1,0,0,-1,9.63,117.254009)" stroke-width=".99628" stroke-linecap="butt" stroke-miterlimit="10" stroke-linejoin="miter" fill="none" stroke="#5f4690" d="M362.6292 37.41809 361.97004 43.93135"/>
<path transform="matrix(-.10066,-.99487,-.99487,.10066,371.6251,73.57045)" d="M4.25066 0 .49814 1.53519V0-1.53519Z" fill="#5f4690"/>
<path transform="matrix(-.10066,-.99487,-.99487,.10066,371.6251,73.57045)" stroke-width=".99628" stroke-linecap="butt" stroke-miterlimit="10" stroke-linejoin="miter" fill="none" stroke="#5f4690" d="M4.25066 0 .49814 1.53519V0-1.53519Z"/>
<path transform="matrix(1,0,0,-1,9.63,117.254009)" stroke-width=".99628" stroke-linecap="butt" stroke-miterlimit="10" stroke-linejoin="miter" fill="none" stroke="#5f4690" d="M302.3918 35.71744 300.58689 40.81326"/>
<path transform="matrix(-.33385,-.94257,-.94257,.33385,310.30006,76.675518)" d="M4.25066 0 .49814 1.53519V0-1.53519Z" fill="#5f4690"/>
<path transform="matrix(-.33385,-.94257,-.94257,.33385,310.30006,76.675518)" stroke-width=".99628" stroke-linecap="butt" stroke-miterlimit="10" stroke-linejoin="miter" fill="none" stroke="#5f4690" d="M4.25066 0 .49814 1.53519V0-1.53519Z"/>
<path transform="matrix(1,0,0,-1,9.63,117.254009)" d="M448.57484 80.78922C448.57484 82.34561 447.31318 83.6073 445.75679 83.6073 444.20039 83.6073 442.9387 82.34561 442.9387 80.78922 442.9387 79.23282 444.20039 77.97113 445.75679 77.97113 447.31318 77.97113 448.57484 79.23282 448.57484 80.78922ZM445.75679 80.78922" fill="#0f8554"/>
<use data-text="&#x03c0;" xlink:href="#font_0_1" transform="matrix(11.9552,0,0,-11.9552,456.583,32.716005)" fill="#0f8554"/>
<use data-text="&#x2217;" xlink:href="#font_1_1" transform="matrix(7.9701,0,0,-7.9701,465.18403,28.377007)" fill="#0f8554"/>
<use data-text="c" xlink:href="#font_2_2" transform="matrix(7.9701,0,0,-7.9701,464.74104,36.412004)" fill="#0f8554"/>
<path transform="matrix(1,0,0,-1,9.63,117.254009)" d="M450.98448 78.23807C450.98448 79.79446 449.7228 81.05615 448.1664 81.05615 446.61 81.05615 445.3483 79.79446 445.3483 78.23807 445.3483 76.68167 446.61 75.41998 448.1664 75.41998 449.7228 75.41998 450.98448 76.68167 450.98448 78.23807ZM448.1664 78.23807" fill="#5f4690"/>
<use data-text="&#x03c0;" xlink:href="#font_0_1" transform="matrix(11.9552,0,0,-11.9552,461.088,45.879007)" fill="#5f4690"/>
<use data-text="N" xlink:href="#font_2_1" transform="matrix(7.9701,0,0,-7.9701,469.246,47.673006)" fill="#5f4690"/>
<use data-text="&#x03a0;" xlink:href="#font_3_1" transform="matrix(11.9552,0,0,-11.9552,493.462,25.988007)"/>
<use data-text="&#x221e;" xlink:href="#font_4_1" transform="matrix(7.9701,0,0,-7.9701,502.237,21.65001)"/>
<use data-text="&#x003c;" xlink:href="#font_5_1" transform="matrix(7.9701,0,0,-7.9701,502.237,29.097008)"/>
<use data-text="d" xlink:href="#font_5_3" transform="matrix(7.9701,0,0,-7.9701,508.8203,29.097008)"/>
<use data-text="&#x03a0;" xlink:href="#font_3_1" transform="matrix(11.9552,0,0,-11.9552,445.273,60.812005)"/>
<use data-text="N" xlink:href="#font_5_2" transform="matrix(7.9701,0,0,-7.9701,454.048,56.474008)"/>
<use data-text="&#x003c;" xlink:href="#font_5_1" transform="matrix(7.9701,0,0,-7.9701,454.048,63.921007)"/>
<use data-text="d" xlink:href="#font_5_3" transform="matrix(7.9701,0,0,-7.9701,460.63133,63.921007)"/>
<use data-text="&#x03a0;" xlink:href="#font_3_1" transform="matrix(11.9552,0,0,-11.9552,322.39,103.177)"/>
<use data-text="0" xlink:href="#font_6_1" transform="matrix(7.9701,0,0,-7.9701,331.165,98.839008)"/>
<use data-text="&#x003c;" xlink:href="#font_5_1" transform="matrix(7.9701,0,0,-7.9701,331.165,106.286)"/>
<use data-text="d" xlink:href="#font_5_3" transform="matrix(7.9701,0,0,-7.9701,337.74833,106.286)"/>
<path transform="matrix(1,0,0,-1,9.63,117.254009)" d="M279.9101 8.50412C279.9101 10.06052 278.6484 11.3222 277.09205 11.3222 275.53565 11.3222 274.27397 10.06052 274.27397 8.50412 274.27397 6.94772 275.53565 5.68604 277.09205 5.68604 278.6484 5.68604 279.9101 6.94772 279.9101 8.50412ZM277.09205 8.50412"/>
<use data-text="&#x03c0;" xlink:href="#font_8_1" transform="matrix(11.9552,0,0,-11.9552,288.26103,105.325008)"/>
<use data-text="0" xlink:href="#font_6_1" transform="matrix(7.9701,0,0,-7.9701,294.90104,107.118007)"/>
<use data-text="E" xlink:href="#font_7_1" transform="matrix(11.9552,0,0,-11.9552,280.49,28.39901)"/>
<use data-text="x" xlink:href="#font_7_11" transform="matrix(11.9552,0,0,-11.9552,289.31294,28.39901)"/>
<use data-text="p" xlink:href="#font_7_7" transform="matrix(11.9552,0,0,-11.9552,296.4143,28.39901)"/>
<use data-text="a" xlink:href="#font_7_2" transform="matrix(11.9552,0,0,-11.9552,303.8863,28.39901)"/>
<use data-text="n" xlink:href="#font_7_5" transform="matrix(11.9552,0,0,-11.9552,310.42579,28.39901)"/>
<use data-text="s" xlink:href="#font_7_9" transform="matrix(11.9552,0,0,-11.9552,317.89778,28.39901)"/>
<use data-text="i" xlink:href="#font_7_3" transform="matrix(11.9552,0,0,-11.9552,323.20588,28.39901)"/>
<use data-text="o" xlink:href="#font_7_6" transform="matrix(11.9552,0,0,-11.9552,326.94786,28.39901)"/>
<use data-text="n" xlink:href="#font_7_5" transform="matrix(11.9552,0,0,-11.9552,333.67863,28.39901)"/>
</svg>
